M48
; DRILL file {KiCad (5.1.2)-2} date 06.08.2019 17:04:59
; FORMAT={3:3/ absolute / metric / suppress leading zeros}
; #@! TF.CreationDate,2019-08-06T17:04:59+02:00
; #@! TF.GenerationSoftware,Kicad,Pcbnew,(5.1.2)-2
FMAT,2
METRIC,TZ
T1C0.750
T2C0.800
T3C1.000
T4C1.100
T5C1.300
%
G90
G05
T1
X119380Y33528
X120650Y33528
X121920Y33528
T2
X148590Y53086
X148590Y50546
X148590Y48006
X148590Y45466
X156210Y53086
X156210Y50546
X156210Y48006
X156210Y45466
X128016Y35560
X138176Y35560
T3
X146304Y39370
X148844Y39370
X155702Y36830
X155702Y34290
X164338Y43434
X164338Y40894
X164338Y38354
X144500Y50000
X144500Y47460
X167894Y43434
X167894Y40894
X167894Y38354
X146304Y33782
X148844Y33782
X140716Y53848
X143256Y53848
T4
X138938Y50038
X138938Y39878
T5
X119404Y53498
X119404Y41498
X131604Y53498
X131604Y41498
X133604Y47498
T0
M30
