G04 #@! TF.GenerationSoftware,KiCad,Pcbnew,(5.1.2)-2*
G04 #@! TF.CreationDate,2019-08-06T17:03:01+02:00*
G04 #@! TF.ProjectId,fiestaSkipWiringATtiny,66696573-7461-4536-9b69-70576972696e,rev?*
G04 #@! TF.SameCoordinates,Original*
G04 #@! TF.FileFunction,Soldermask,Top*
G04 #@! TF.FilePolarity,Negative*
%FSLAX46Y46*%
G04 Gerber Fmt 4.6, Leading zero omitted, Abs format (unit mm)*
G04 Created by KiCad (PCBNEW (5.1.2)-2) date 2019-08-06 17:03:01*
%MOMM*%
%LPD*%
G04 APERTURE LIST*
%ADD10C,0.100000*%
G04 APERTURE END LIST*
D10*
G36*
X122032915Y34320666D02*
G01*
X122141491Y34287729D01*
X122141494Y34287728D01*
X122177600Y34268429D01*
X122241556Y34234244D01*
X122329264Y34162264D01*
X122401244Y34074557D01*
X122435429Y34010601D01*
X122454728Y33974495D01*
X122454729Y33974492D01*
X122487666Y33865916D01*
X122496000Y33781298D01*
X122496000Y33274703D01*
X122487666Y33190084D01*
X122455252Y33083233D01*
X122454728Y33081505D01*
X122444761Y33062859D01*
X122401244Y32981443D01*
X122329264Y32893736D01*
X122241557Y32821756D01*
X122177601Y32787571D01*
X122141495Y32768272D01*
X122141492Y32768271D01*
X122032916Y32735334D01*
X121920000Y32724213D01*
X121807085Y32735334D01*
X121698509Y32768271D01*
X121698506Y32768272D01*
X121662400Y32787571D01*
X121598444Y32821756D01*
X121510737Y32893736D01*
X121438757Y32981443D01*
X121413219Y33029221D01*
X121395239Y33062859D01*
X121381625Y33083234D01*
X121364298Y33100561D01*
X121343924Y33114174D01*
X121321285Y33123552D01*
X121297252Y33128332D01*
X121272748Y33128332D01*
X121248715Y33123552D01*
X121226076Y33114174D01*
X121205701Y33100560D01*
X121188374Y33083233D01*
X121174761Y33062859D01*
X121131244Y32981443D01*
X121059264Y32893736D01*
X120971557Y32821756D01*
X120907601Y32787571D01*
X120871495Y32768272D01*
X120871492Y32768271D01*
X120762916Y32735334D01*
X120650000Y32724213D01*
X120537085Y32735334D01*
X120428509Y32768271D01*
X120428506Y32768272D01*
X120392400Y32787571D01*
X120328444Y32821756D01*
X120240737Y32893736D01*
X120177622Y32970641D01*
X120160297Y32987966D01*
X120139923Y33001580D01*
X120117284Y33010957D01*
X120093250Y33015737D01*
X120068746Y33015737D01*
X120044713Y33010956D01*
X120022074Y33001579D01*
X120001700Y32987965D01*
X119984373Y32970638D01*
X119970759Y32950264D01*
X119961382Y32927625D01*
X119956000Y32891340D01*
X119956000Y32727000D01*
X118804000Y32727000D01*
X118804000Y34329000D01*
X119956000Y34329000D01*
X119956000Y34164659D01*
X119958402Y34140273D01*
X119965515Y34116824D01*
X119977066Y34095213D01*
X119992611Y34076271D01*
X120011553Y34060726D01*
X120033164Y34049175D01*
X120056613Y34042062D01*
X120080999Y34039660D01*
X120105385Y34042062D01*
X120128834Y34049175D01*
X120150445Y34060726D01*
X120169387Y34076271D01*
X120177608Y34085343D01*
X120240736Y34162264D01*
X120328443Y34234244D01*
X120392399Y34268429D01*
X120428505Y34287728D01*
X120428508Y34287729D01*
X120537084Y34320666D01*
X120650000Y34331787D01*
X120762915Y34320666D01*
X120871491Y34287729D01*
X120871494Y34287728D01*
X120907600Y34268429D01*
X120971556Y34234244D01*
X121059264Y34162264D01*
X121131244Y34074557D01*
X121174761Y33993141D01*
X121188375Y33972766D01*
X121205702Y33955439D01*
X121226076Y33941826D01*
X121248715Y33932448D01*
X121272748Y33927668D01*
X121297252Y33927668D01*
X121321285Y33932448D01*
X121343924Y33941826D01*
X121364299Y33955440D01*
X121381626Y33972767D01*
X121395239Y33993140D01*
X121438756Y34074556D01*
X121510736Y34162264D01*
X121598443Y34234244D01*
X121662399Y34268429D01*
X121698505Y34287728D01*
X121698508Y34287729D01*
X121807084Y34320666D01*
X121920000Y34331787D01*
X122032915Y34320666D01*
X122032915Y34320666D01*
G37*
G36*
X148954442Y34676482D02*
G01*
X149020627Y34669963D01*
X149190466Y34618443D01*
X149346991Y34534778D01*
X149382729Y34505448D01*
X149484186Y34422186D01*
X149567448Y34320729D01*
X149596778Y34284991D01*
X149680443Y34128466D01*
X149731963Y33958627D01*
X149749359Y33782000D01*
X149731963Y33605373D01*
X149680443Y33435534D01*
X149596778Y33279009D01*
X149593244Y33274703D01*
X149484186Y33141814D01*
X149410698Y33081505D01*
X149346991Y33029222D01*
X149190466Y32945557D01*
X149020627Y32894037D01*
X148954442Y32887518D01*
X148888260Y32881000D01*
X148799740Y32881000D01*
X148733558Y32887518D01*
X148667373Y32894037D01*
X148497534Y32945557D01*
X148341009Y33029222D01*
X148277302Y33081505D01*
X148203814Y33141814D01*
X148094756Y33274703D01*
X148091222Y33279009D01*
X148007557Y33435534D01*
X147956037Y33605373D01*
X147938641Y33782000D01*
X147956037Y33958627D01*
X148007557Y34128466D01*
X148091222Y34284991D01*
X148120552Y34320729D01*
X148203814Y34422186D01*
X148305271Y34505448D01*
X148341009Y34534778D01*
X148497534Y34618443D01*
X148667373Y34669963D01*
X148733558Y34676482D01*
X148799740Y34683000D01*
X148888260Y34683000D01*
X148954442Y34676482D01*
X148954442Y34676482D01*
G37*
G36*
X147205000Y32881000D02*
G01*
X145403000Y32881000D01*
X145403000Y34683000D01*
X147205000Y34683000D01*
X147205000Y32881000D01*
X147205000Y32881000D01*
G37*
G36*
X156603000Y33389000D02*
G01*
X154801000Y33389000D01*
X154801000Y35191000D01*
X156603000Y35191000D01*
X156603000Y33389000D01*
X156603000Y33389000D01*
G37*
G36*
X138342823Y36398687D02*
G01*
X138503242Y36350024D01*
X138570361Y36314148D01*
X138651078Y36271004D01*
X138780659Y36164659D01*
X138887004Y36035078D01*
X138887005Y36035076D01*
X138966024Y35887242D01*
X139014687Y35726823D01*
X139031117Y35560000D01*
X139014687Y35393177D01*
X138966024Y35232758D01*
X138925477Y35156900D01*
X138887004Y35084922D01*
X138780659Y34955341D01*
X138651078Y34848996D01*
X138651076Y34848995D01*
X138503242Y34769976D01*
X138342823Y34721313D01*
X138217804Y34709000D01*
X138134196Y34709000D01*
X138009177Y34721313D01*
X137848758Y34769976D01*
X137700924Y34848995D01*
X137700922Y34848996D01*
X137571341Y34955341D01*
X137464996Y35084922D01*
X137426523Y35156900D01*
X137385976Y35232758D01*
X137337313Y35393177D01*
X137320883Y35560000D01*
X137337313Y35726823D01*
X137385976Y35887242D01*
X137464995Y36035076D01*
X137464996Y36035078D01*
X137571341Y36164659D01*
X137700922Y36271004D01*
X137781639Y36314148D01*
X137848758Y36350024D01*
X138009177Y36398687D01*
X138134196Y36411000D01*
X138217804Y36411000D01*
X138342823Y36398687D01*
X138342823Y36398687D01*
G37*
G36*
X128264228Y36378297D02*
G01*
X128419100Y36314147D01*
X128558481Y36221015D01*
X128677015Y36102481D01*
X128770147Y35963100D01*
X128834297Y35808228D01*
X128867000Y35643816D01*
X128867000Y35476184D01*
X128834297Y35311772D01*
X128770147Y35156900D01*
X128677015Y35017519D01*
X128558481Y34898985D01*
X128419100Y34805853D01*
X128264228Y34741703D01*
X128099816Y34709000D01*
X127932184Y34709000D01*
X127767772Y34741703D01*
X127612900Y34805853D01*
X127473519Y34898985D01*
X127354985Y35017519D01*
X127261853Y35156900D01*
X127197703Y35311772D01*
X127165000Y35476184D01*
X127165000Y35643816D01*
X127197703Y35808228D01*
X127261853Y35963100D01*
X127354985Y36102481D01*
X127473519Y36221015D01*
X127612900Y36314147D01*
X127767772Y36378297D01*
X127932184Y36411000D01*
X128099816Y36411000D01*
X128264228Y36378297D01*
X128264228Y36378297D01*
G37*
G36*
X155812443Y37724481D02*
G01*
X155878627Y37717963D01*
X156048466Y37666443D01*
X156204991Y37582778D01*
X156240729Y37553448D01*
X156342186Y37470186D01*
X156425448Y37368729D01*
X156454778Y37332991D01*
X156538443Y37176466D01*
X156589963Y37006627D01*
X156607359Y36830000D01*
X156589963Y36653373D01*
X156538443Y36483534D01*
X156454778Y36327009D01*
X156444223Y36314148D01*
X156342186Y36189814D01*
X156240729Y36106552D01*
X156204991Y36077222D01*
X156048466Y35993557D01*
X155878627Y35942037D01*
X155812442Y35935518D01*
X155746260Y35929000D01*
X155657740Y35929000D01*
X155591558Y35935518D01*
X155525373Y35942037D01*
X155355534Y35993557D01*
X155199009Y36077222D01*
X155163271Y36106552D01*
X155061814Y36189814D01*
X154959777Y36314148D01*
X154949222Y36327009D01*
X154865557Y36483534D01*
X154814037Y36653373D01*
X154796641Y36830000D01*
X154814037Y37006627D01*
X154865557Y37176466D01*
X154949222Y37332991D01*
X154978552Y37368729D01*
X155061814Y37470186D01*
X155163271Y37553448D01*
X155199009Y37582778D01*
X155355534Y37666443D01*
X155525373Y37717963D01*
X155591557Y37724481D01*
X155657740Y37731000D01*
X155746260Y37731000D01*
X155812443Y37724481D01*
X155812443Y37724481D01*
G37*
G36*
X164448442Y39248482D02*
G01*
X164514627Y39241963D01*
X164684466Y39190443D01*
X164840991Y39106778D01*
X164876729Y39077448D01*
X164978186Y38994186D01*
X165061448Y38892729D01*
X165090778Y38856991D01*
X165174443Y38700466D01*
X165225963Y38530627D01*
X165243359Y38354000D01*
X165225963Y38177373D01*
X165174443Y38007534D01*
X165090778Y37851009D01*
X165061448Y37815271D01*
X164978186Y37713814D01*
X164876729Y37630552D01*
X164840991Y37601222D01*
X164684466Y37517557D01*
X164514627Y37466037D01*
X164448442Y37459518D01*
X164382260Y37453000D01*
X164293740Y37453000D01*
X164227557Y37459519D01*
X164161373Y37466037D01*
X163991534Y37517557D01*
X163835009Y37601222D01*
X163799271Y37630552D01*
X163697814Y37713814D01*
X163614552Y37815271D01*
X163585222Y37851009D01*
X163501557Y38007534D01*
X163450037Y38177373D01*
X163432641Y38354000D01*
X163450037Y38530627D01*
X163501557Y38700466D01*
X163585222Y38856991D01*
X163614552Y38892729D01*
X163697814Y38994186D01*
X163799271Y39077448D01*
X163835009Y39106778D01*
X163991534Y39190443D01*
X164161373Y39241963D01*
X164227558Y39248482D01*
X164293740Y39255000D01*
X164382260Y39255000D01*
X164448442Y39248482D01*
X164448442Y39248482D01*
G37*
G36*
X168004442Y39248482D02*
G01*
X168070627Y39241963D01*
X168240466Y39190443D01*
X168396991Y39106778D01*
X168432729Y39077448D01*
X168534186Y38994186D01*
X168617448Y38892729D01*
X168646778Y38856991D01*
X168730443Y38700466D01*
X168781963Y38530627D01*
X168799359Y38354000D01*
X168781963Y38177373D01*
X168730443Y38007534D01*
X168646778Y37851009D01*
X168617448Y37815271D01*
X168534186Y37713814D01*
X168432729Y37630552D01*
X168396991Y37601222D01*
X168240466Y37517557D01*
X168070627Y37466037D01*
X168004442Y37459518D01*
X167938260Y37453000D01*
X167849740Y37453000D01*
X167783557Y37459519D01*
X167717373Y37466037D01*
X167547534Y37517557D01*
X167391009Y37601222D01*
X167355271Y37630552D01*
X167253814Y37713814D01*
X167170552Y37815271D01*
X167141222Y37851009D01*
X167057557Y38007534D01*
X167006037Y38177373D01*
X166988641Y38354000D01*
X167006037Y38530627D01*
X167057557Y38700466D01*
X167141222Y38856991D01*
X167170552Y38892729D01*
X167253814Y38994186D01*
X167355271Y39077448D01*
X167391009Y39106778D01*
X167547534Y39190443D01*
X167717373Y39241963D01*
X167783558Y39248482D01*
X167849740Y39255000D01*
X167938260Y39255000D01*
X168004442Y39248482D01*
X168004442Y39248482D01*
G37*
G36*
X149745000Y38469000D02*
G01*
X147943000Y38469000D01*
X147943000Y40271000D01*
X149745000Y40271000D01*
X149745000Y38469000D01*
X149745000Y38469000D01*
G37*
G36*
X146414442Y40264482D02*
G01*
X146480627Y40257963D01*
X146650466Y40206443D01*
X146806991Y40122778D01*
X146842729Y40093448D01*
X146944186Y40010186D01*
X147027448Y39908729D01*
X147056778Y39872991D01*
X147140443Y39716466D01*
X147191963Y39546627D01*
X147209359Y39370000D01*
X147191963Y39193373D01*
X147140443Y39023534D01*
X147056778Y38867009D01*
X147027448Y38831271D01*
X146944186Y38729814D01*
X146842729Y38646552D01*
X146806991Y38617222D01*
X146650466Y38533557D01*
X146480627Y38482037D01*
X146414443Y38475519D01*
X146348260Y38469000D01*
X146259740Y38469000D01*
X146193557Y38475519D01*
X146127373Y38482037D01*
X145957534Y38533557D01*
X145801009Y38617222D01*
X145765271Y38646552D01*
X145663814Y38729814D01*
X145580552Y38831271D01*
X145551222Y38867009D01*
X145467557Y39023534D01*
X145416037Y39193373D01*
X145398641Y39370000D01*
X145416037Y39546627D01*
X145467557Y39716466D01*
X145551222Y39872991D01*
X145580552Y39908729D01*
X145663814Y40010186D01*
X145765271Y40093448D01*
X145801009Y40122778D01*
X145957534Y40206443D01*
X146127373Y40257963D01*
X146193557Y40264481D01*
X146259740Y40271000D01*
X146348260Y40271000D01*
X146414442Y40264482D01*
X146414442Y40264482D01*
G37*
G36*
X140089000Y38727000D02*
G01*
X137787000Y38727000D01*
X137787000Y41029000D01*
X140089000Y41029000D01*
X140089000Y38727000D01*
X140089000Y38727000D01*
G37*
G36*
X119706585Y43019198D02*
G01*
X119856410Y42989396D01*
X120138674Y42872479D01*
X120392705Y42702741D01*
X120608741Y42486705D01*
X120778479Y42232674D01*
X120895396Y41950410D01*
X120955000Y41650760D01*
X120955000Y41345240D01*
X120895396Y41045590D01*
X120778479Y40763326D01*
X120608741Y40509295D01*
X120392705Y40293259D01*
X120138674Y40123521D01*
X119856410Y40006604D01*
X119706585Y39976802D01*
X119556761Y39947000D01*
X119251239Y39947000D01*
X119101415Y39976802D01*
X118951590Y40006604D01*
X118669326Y40123521D01*
X118415295Y40293259D01*
X118199259Y40509295D01*
X118029521Y40763326D01*
X117912604Y41045590D01*
X117853000Y41345240D01*
X117853000Y41650760D01*
X117912604Y41950410D01*
X118029521Y42232674D01*
X118199259Y42486705D01*
X118415295Y42702741D01*
X118669326Y42872479D01*
X118951590Y42989396D01*
X119101415Y43019198D01*
X119251239Y43049000D01*
X119556761Y43049000D01*
X119706585Y43019198D01*
X119706585Y43019198D01*
G37*
G36*
X131906585Y43019198D02*
G01*
X132056410Y42989396D01*
X132338674Y42872479D01*
X132592705Y42702741D01*
X132808741Y42486705D01*
X132978479Y42232674D01*
X133095396Y41950410D01*
X133155000Y41650760D01*
X133155000Y41345240D01*
X133095396Y41045590D01*
X132978479Y40763326D01*
X132808741Y40509295D01*
X132592705Y40293259D01*
X132338674Y40123521D01*
X132056410Y40006604D01*
X131906585Y39976802D01*
X131756761Y39947000D01*
X131451239Y39947000D01*
X131301415Y39976802D01*
X131151590Y40006604D01*
X130869326Y40123521D01*
X130615295Y40293259D01*
X130399259Y40509295D01*
X130229521Y40763326D01*
X130112604Y41045590D01*
X130053000Y41345240D01*
X130053000Y41650760D01*
X130112604Y41950410D01*
X130229521Y42232674D01*
X130399259Y42486705D01*
X130615295Y42702741D01*
X130869326Y42872479D01*
X131151590Y42989396D01*
X131301415Y43019198D01*
X131451239Y43049000D01*
X131756761Y43049000D01*
X131906585Y43019198D01*
X131906585Y43019198D01*
G37*
G36*
X168004443Y41788481D02*
G01*
X168070627Y41781963D01*
X168240466Y41730443D01*
X168396991Y41646778D01*
X168432729Y41617448D01*
X168534186Y41534186D01*
X168617448Y41432729D01*
X168646778Y41396991D01*
X168730443Y41240466D01*
X168781963Y41070627D01*
X168799359Y40894000D01*
X168781963Y40717373D01*
X168730443Y40547534D01*
X168646778Y40391009D01*
X168617448Y40355271D01*
X168534186Y40253814D01*
X168432729Y40170552D01*
X168396991Y40141222D01*
X168240466Y40057557D01*
X168070627Y40006037D01*
X168004443Y39999519D01*
X167938260Y39993000D01*
X167849740Y39993000D01*
X167783557Y39999519D01*
X167717373Y40006037D01*
X167547534Y40057557D01*
X167391009Y40141222D01*
X167355271Y40170552D01*
X167253814Y40253814D01*
X167170552Y40355271D01*
X167141222Y40391009D01*
X167057557Y40547534D01*
X167006037Y40717373D01*
X166988641Y40894000D01*
X167006037Y41070627D01*
X167057557Y41240466D01*
X167141222Y41396991D01*
X167170552Y41432729D01*
X167253814Y41534186D01*
X167355271Y41617448D01*
X167391009Y41646778D01*
X167547534Y41730443D01*
X167717373Y41781963D01*
X167783557Y41788481D01*
X167849740Y41795000D01*
X167938260Y41795000D01*
X168004443Y41788481D01*
X168004443Y41788481D01*
G37*
G36*
X164448443Y41788481D02*
G01*
X164514627Y41781963D01*
X164684466Y41730443D01*
X164840991Y41646778D01*
X164876729Y41617448D01*
X164978186Y41534186D01*
X165061448Y41432729D01*
X165090778Y41396991D01*
X165174443Y41240466D01*
X165225963Y41070627D01*
X165243359Y40894000D01*
X165225963Y40717373D01*
X165174443Y40547534D01*
X165090778Y40391009D01*
X165061448Y40355271D01*
X164978186Y40253814D01*
X164876729Y40170552D01*
X164840991Y40141222D01*
X164684466Y40057557D01*
X164514627Y40006037D01*
X164448443Y39999519D01*
X164382260Y39993000D01*
X164293740Y39993000D01*
X164227557Y39999519D01*
X164161373Y40006037D01*
X163991534Y40057557D01*
X163835009Y40141222D01*
X163799271Y40170552D01*
X163697814Y40253814D01*
X163614552Y40355271D01*
X163585222Y40391009D01*
X163501557Y40547534D01*
X163450037Y40717373D01*
X163432641Y40894000D01*
X163450037Y41070627D01*
X163501557Y41240466D01*
X163585222Y41396991D01*
X163614552Y41432729D01*
X163697814Y41534186D01*
X163799271Y41617448D01*
X163835009Y41646778D01*
X163991534Y41730443D01*
X164161373Y41781963D01*
X164227557Y41788481D01*
X164293740Y41795000D01*
X164382260Y41795000D01*
X164448443Y41788481D01*
X164448443Y41788481D01*
G37*
G36*
X165239000Y42533000D02*
G01*
X163437000Y42533000D01*
X163437000Y44335000D01*
X165239000Y44335000D01*
X165239000Y42533000D01*
X165239000Y42533000D01*
G37*
G36*
X168795000Y42533000D02*
G01*
X166993000Y42533000D01*
X166993000Y44335000D01*
X168795000Y44335000D01*
X168795000Y42533000D01*
X168795000Y42533000D01*
G37*
G36*
X156376823Y46304687D02*
G01*
X156537242Y46256024D01*
X156669906Y46185114D01*
X156685078Y46177004D01*
X156814659Y46070659D01*
X156921004Y45941078D01*
X156921005Y45941076D01*
X157000024Y45793242D01*
X157048687Y45632823D01*
X157065117Y45466000D01*
X157048687Y45299177D01*
X157000024Y45138758D01*
X156929114Y45006094D01*
X156921004Y44990922D01*
X156814659Y44861341D01*
X156685078Y44754996D01*
X156685076Y44754995D01*
X156537242Y44675976D01*
X156376823Y44627313D01*
X156251804Y44615000D01*
X156168196Y44615000D01*
X156043177Y44627313D01*
X155882758Y44675976D01*
X155734924Y44754995D01*
X155734922Y44754996D01*
X155605341Y44861341D01*
X155498996Y44990922D01*
X155490886Y45006094D01*
X155419976Y45138758D01*
X155371313Y45299177D01*
X155354883Y45466000D01*
X155371313Y45632823D01*
X155419976Y45793242D01*
X155498995Y45941076D01*
X155498996Y45941078D01*
X155605341Y46070659D01*
X155734922Y46177004D01*
X155750094Y46185114D01*
X155882758Y46256024D01*
X156043177Y46304687D01*
X156168196Y46317000D01*
X156251804Y46317000D01*
X156376823Y46304687D01*
X156376823Y46304687D01*
G37*
G36*
X148756823Y46304687D02*
G01*
X148917242Y46256024D01*
X149049906Y46185114D01*
X149065078Y46177004D01*
X149194659Y46070659D01*
X149301004Y45941078D01*
X149301005Y45941076D01*
X149380024Y45793242D01*
X149428687Y45632823D01*
X149445117Y45466000D01*
X149428687Y45299177D01*
X149380024Y45138758D01*
X149309114Y45006094D01*
X149301004Y44990922D01*
X149194659Y44861341D01*
X149065078Y44754996D01*
X149065076Y44754995D01*
X148917242Y44675976D01*
X148756823Y44627313D01*
X148631804Y44615000D01*
X148548196Y44615000D01*
X148423177Y44627313D01*
X148262758Y44675976D01*
X148114924Y44754995D01*
X148114922Y44754996D01*
X147985341Y44861341D01*
X147878996Y44990922D01*
X147870886Y45006094D01*
X147799976Y45138758D01*
X147751313Y45299177D01*
X147734883Y45466000D01*
X147751313Y45632823D01*
X147799976Y45793242D01*
X147878995Y45941076D01*
X147878996Y45941078D01*
X147985341Y46070659D01*
X148114922Y46177004D01*
X148130094Y46185114D01*
X148262758Y46256024D01*
X148423177Y46304687D01*
X148548196Y46317000D01*
X148631804Y46317000D01*
X148756823Y46304687D01*
X148756823Y46304687D01*
G37*
G36*
X133906585Y49019198D02*
G01*
X134056410Y48989396D01*
X134338674Y48872479D01*
X134592705Y48702741D01*
X134808741Y48486705D01*
X134978479Y48232674D01*
X135095396Y47950410D01*
X135155000Y47650760D01*
X135155000Y47345240D01*
X135095396Y47045590D01*
X134978479Y46763326D01*
X134808741Y46509295D01*
X134592705Y46293259D01*
X134338674Y46123521D01*
X134056410Y46006604D01*
X133906585Y45976802D01*
X133756761Y45947000D01*
X133451239Y45947000D01*
X133301415Y45976802D01*
X133151590Y46006604D01*
X132869326Y46123521D01*
X132615295Y46293259D01*
X132399259Y46509295D01*
X132229521Y46763326D01*
X132112604Y47045590D01*
X132053000Y47345240D01*
X132053000Y47650760D01*
X132112604Y47950410D01*
X132229521Y48232674D01*
X132399259Y48486705D01*
X132615295Y48702741D01*
X132869326Y48872479D01*
X133151590Y48989396D01*
X133301415Y49019198D01*
X133451239Y49049000D01*
X133756761Y49049000D01*
X133906585Y49019198D01*
X133906585Y49019198D01*
G37*
G36*
X144610443Y48354481D02*
G01*
X144676627Y48347963D01*
X144846466Y48296443D01*
X145002991Y48212778D01*
X145038729Y48183448D01*
X145140186Y48100186D01*
X145217481Y48006000D01*
X145252778Y47962991D01*
X145252779Y47962989D01*
X145318959Y47839177D01*
X145336443Y47806466D01*
X145387963Y47636627D01*
X145405359Y47460000D01*
X145387963Y47283373D01*
X145336443Y47113534D01*
X145252778Y46957009D01*
X145223448Y46921271D01*
X145140186Y46819814D01*
X145038729Y46736552D01*
X145002991Y46707222D01*
X144846466Y46623557D01*
X144676627Y46572037D01*
X144610443Y46565519D01*
X144544260Y46559000D01*
X144455740Y46559000D01*
X144389557Y46565519D01*
X144323373Y46572037D01*
X144153534Y46623557D01*
X143997009Y46707222D01*
X143961271Y46736552D01*
X143859814Y46819814D01*
X143776552Y46921271D01*
X143747222Y46957009D01*
X143663557Y47113534D01*
X143612037Y47283373D01*
X143594641Y47460000D01*
X143612037Y47636627D01*
X143663557Y47806466D01*
X143681042Y47839177D01*
X143747221Y47962989D01*
X143747222Y47962991D01*
X143782519Y48006000D01*
X143859814Y48100186D01*
X143961271Y48183448D01*
X143997009Y48212778D01*
X144153534Y48296443D01*
X144323373Y48347963D01*
X144389558Y48354482D01*
X144455740Y48361000D01*
X144544260Y48361000D01*
X144610443Y48354481D01*
X144610443Y48354481D01*
G37*
G36*
X148756823Y48844687D02*
G01*
X148917242Y48796024D01*
X149049906Y48725114D01*
X149065078Y48717004D01*
X149194659Y48610659D01*
X149301004Y48481078D01*
X149301005Y48481076D01*
X149380024Y48333242D01*
X149428687Y48172823D01*
X149445117Y48006000D01*
X149428687Y47839177D01*
X149380024Y47678758D01*
X149357504Y47636627D01*
X149301004Y47530922D01*
X149194659Y47401341D01*
X149065078Y47294996D01*
X149065076Y47294995D01*
X148917242Y47215976D01*
X148756823Y47167313D01*
X148631804Y47155000D01*
X148548196Y47155000D01*
X148423177Y47167313D01*
X148262758Y47215976D01*
X148114924Y47294995D01*
X148114922Y47294996D01*
X147985341Y47401341D01*
X147878996Y47530922D01*
X147822496Y47636627D01*
X147799976Y47678758D01*
X147751313Y47839177D01*
X147734883Y48006000D01*
X147751313Y48172823D01*
X147799976Y48333242D01*
X147878995Y48481076D01*
X147878996Y48481078D01*
X147985341Y48610659D01*
X148114922Y48717004D01*
X148130094Y48725114D01*
X148262758Y48796024D01*
X148423177Y48844687D01*
X148548196Y48857000D01*
X148631804Y48857000D01*
X148756823Y48844687D01*
X148756823Y48844687D01*
G37*
G36*
X156376823Y48844687D02*
G01*
X156537242Y48796024D01*
X156669906Y48725114D01*
X156685078Y48717004D01*
X156814659Y48610659D01*
X156921004Y48481078D01*
X156921005Y48481076D01*
X157000024Y48333242D01*
X157048687Y48172823D01*
X157065117Y48006000D01*
X157048687Y47839177D01*
X157000024Y47678758D01*
X156977504Y47636627D01*
X156921004Y47530922D01*
X156814659Y47401341D01*
X156685078Y47294996D01*
X156685076Y47294995D01*
X156537242Y47215976D01*
X156376823Y47167313D01*
X156251804Y47155000D01*
X156168196Y47155000D01*
X156043177Y47167313D01*
X155882758Y47215976D01*
X155734924Y47294995D01*
X155734922Y47294996D01*
X155605341Y47401341D01*
X155498996Y47530922D01*
X155442496Y47636627D01*
X155419976Y47678758D01*
X155371313Y47839177D01*
X155354883Y48006000D01*
X155371313Y48172823D01*
X155419976Y48333242D01*
X155498995Y48481076D01*
X155498996Y48481078D01*
X155605341Y48610659D01*
X155734922Y48717004D01*
X155750094Y48725114D01*
X155882758Y48796024D01*
X156043177Y48844687D01*
X156168196Y48857000D01*
X156251804Y48857000D01*
X156376823Y48844687D01*
X156376823Y48844687D01*
G37*
G36*
X139107271Y51177897D02*
G01*
X139163635Y51172346D01*
X139380600Y51106530D01*
X139380602Y51106529D01*
X139580555Y50999653D01*
X139755818Y50855818D01*
X139899653Y50680555D01*
X139971573Y50546000D01*
X140006530Y50480600D01*
X140072346Y50263635D01*
X140094569Y50038000D01*
X140072346Y49812365D01*
X140036744Y49695000D01*
X140006529Y49595398D01*
X139899653Y49395445D01*
X139755818Y49220182D01*
X139580555Y49076347D01*
X139417879Y48989396D01*
X139380600Y48969470D01*
X139163635Y48903654D01*
X139107271Y48898103D01*
X138994545Y48887000D01*
X138881455Y48887000D01*
X138768729Y48898103D01*
X138712365Y48903654D01*
X138495400Y48969470D01*
X138458121Y48989396D01*
X138295445Y49076347D01*
X138120182Y49220182D01*
X137976347Y49395445D01*
X137869471Y49595398D01*
X137839257Y49695000D01*
X137803654Y49812365D01*
X137781431Y50038000D01*
X137803654Y50263635D01*
X137869470Y50480600D01*
X137904427Y50546000D01*
X137976347Y50680555D01*
X138120182Y50855818D01*
X138295445Y50999653D01*
X138495398Y51106529D01*
X138495400Y51106530D01*
X138712365Y51172346D01*
X138768729Y51177897D01*
X138881455Y51189000D01*
X138994545Y51189000D01*
X139107271Y51177897D01*
X139107271Y51177897D01*
G37*
G36*
X145401000Y49099000D02*
G01*
X143599000Y49099000D01*
X143599000Y50901000D01*
X145401000Y50901000D01*
X145401000Y49099000D01*
X145401000Y49099000D01*
G37*
G36*
X148756823Y51384687D02*
G01*
X148917242Y51336024D01*
X149049906Y51265114D01*
X149065078Y51257004D01*
X149194659Y51150659D01*
X149301004Y51021078D01*
X149301005Y51021076D01*
X149380024Y50873242D01*
X149428687Y50712823D01*
X149445117Y50546000D01*
X149428687Y50379177D01*
X149380024Y50218758D01*
X149309114Y50086094D01*
X149301004Y50070922D01*
X149194659Y49941341D01*
X149065078Y49834996D01*
X149065076Y49834995D01*
X148917242Y49755976D01*
X148756823Y49707313D01*
X148631804Y49695000D01*
X148548196Y49695000D01*
X148423177Y49707313D01*
X148262758Y49755976D01*
X148114924Y49834995D01*
X148114922Y49834996D01*
X147985341Y49941341D01*
X147878996Y50070922D01*
X147870886Y50086094D01*
X147799976Y50218758D01*
X147751313Y50379177D01*
X147734883Y50546000D01*
X147751313Y50712823D01*
X147799976Y50873242D01*
X147878995Y51021076D01*
X147878996Y51021078D01*
X147985341Y51150659D01*
X148114922Y51257004D01*
X148130094Y51265114D01*
X148262758Y51336024D01*
X148423177Y51384687D01*
X148548196Y51397000D01*
X148631804Y51397000D01*
X148756823Y51384687D01*
X148756823Y51384687D01*
G37*
G36*
X156376823Y51384687D02*
G01*
X156537242Y51336024D01*
X156669906Y51265114D01*
X156685078Y51257004D01*
X156814659Y51150659D01*
X156921004Y51021078D01*
X156921005Y51021076D01*
X157000024Y50873242D01*
X157048687Y50712823D01*
X157065117Y50546000D01*
X157048687Y50379177D01*
X157000024Y50218758D01*
X156929114Y50086094D01*
X156921004Y50070922D01*
X156814659Y49941341D01*
X156685078Y49834996D01*
X156685076Y49834995D01*
X156537242Y49755976D01*
X156376823Y49707313D01*
X156251804Y49695000D01*
X156168196Y49695000D01*
X156043177Y49707313D01*
X155882758Y49755976D01*
X155734924Y49834995D01*
X155734922Y49834996D01*
X155605341Y49941341D01*
X155498996Y50070922D01*
X155490886Y50086094D01*
X155419976Y50218758D01*
X155371313Y50379177D01*
X155354883Y50546000D01*
X155371313Y50712823D01*
X155419976Y50873242D01*
X155498995Y51021076D01*
X155498996Y51021078D01*
X155605341Y51150659D01*
X155734922Y51257004D01*
X155750094Y51265114D01*
X155882758Y51336024D01*
X156043177Y51384687D01*
X156168196Y51397000D01*
X156251804Y51397000D01*
X156376823Y51384687D01*
X156376823Y51384687D01*
G37*
G36*
X119706585Y55019198D02*
G01*
X119856410Y54989396D01*
X120138674Y54872479D01*
X120392705Y54702741D01*
X120608741Y54486705D01*
X120778479Y54232674D01*
X120895396Y53950410D01*
X120900513Y53924686D01*
X120955000Y53650761D01*
X120955000Y53345239D01*
X120954954Y53345009D01*
X120895396Y53045590D01*
X120778479Y52763326D01*
X120608741Y52509295D01*
X120392705Y52293259D01*
X120138674Y52123521D01*
X119856410Y52006604D01*
X119706585Y51976802D01*
X119556761Y51947000D01*
X119251239Y51947000D01*
X119101415Y51976802D01*
X118951590Y52006604D01*
X118669326Y52123521D01*
X118415295Y52293259D01*
X118199259Y52509295D01*
X118029521Y52763326D01*
X117912604Y53045590D01*
X117853046Y53345009D01*
X117853000Y53345239D01*
X117853000Y53650761D01*
X117907487Y53924686D01*
X117912604Y53950410D01*
X118029521Y54232674D01*
X118199259Y54486705D01*
X118415295Y54702741D01*
X118669326Y54872479D01*
X118951590Y54989396D01*
X119101415Y55019198D01*
X119251239Y55049000D01*
X119556761Y55049000D01*
X119706585Y55019198D01*
X119706585Y55019198D01*
G37*
G36*
X131906585Y55019198D02*
G01*
X132056410Y54989396D01*
X132338674Y54872479D01*
X132592705Y54702741D01*
X132808741Y54486705D01*
X132978479Y54232674D01*
X133095396Y53950410D01*
X133100513Y53924686D01*
X133155000Y53650761D01*
X133155000Y53345239D01*
X133154954Y53345009D01*
X133095396Y53045590D01*
X132978479Y52763326D01*
X132808741Y52509295D01*
X132592705Y52293259D01*
X132338674Y52123521D01*
X132056410Y52006604D01*
X131906585Y51976802D01*
X131756761Y51947000D01*
X131451239Y51947000D01*
X131301415Y51976802D01*
X131151590Y52006604D01*
X130869326Y52123521D01*
X130615295Y52293259D01*
X130399259Y52509295D01*
X130229521Y52763326D01*
X130112604Y53045590D01*
X130053046Y53345009D01*
X130053000Y53345239D01*
X130053000Y53650761D01*
X130107487Y53924686D01*
X130112604Y53950410D01*
X130229521Y54232674D01*
X130399259Y54486705D01*
X130615295Y54702741D01*
X130869326Y54872479D01*
X131151590Y54989396D01*
X131301415Y55019198D01*
X131451239Y55049000D01*
X131756761Y55049000D01*
X131906585Y55019198D01*
X131906585Y55019198D01*
G37*
G36*
X156376823Y53924687D02*
G01*
X156537242Y53876024D01*
X156669906Y53805114D01*
X156685078Y53797004D01*
X156814659Y53690659D01*
X156921004Y53561078D01*
X156921005Y53561076D01*
X157000024Y53413242D01*
X157048687Y53252823D01*
X157065117Y53086000D01*
X157048687Y52919177D01*
X157000024Y52758758D01*
X156929114Y52626094D01*
X156921004Y52610922D01*
X156814659Y52481341D01*
X156685078Y52374996D01*
X156685076Y52374995D01*
X156537242Y52295976D01*
X156537239Y52295975D01*
X156507380Y52286917D01*
X156376823Y52247313D01*
X156251804Y52235000D01*
X156168196Y52235000D01*
X156043177Y52247313D01*
X155912620Y52286917D01*
X155882761Y52295975D01*
X155882758Y52295976D01*
X155734924Y52374995D01*
X155734922Y52374996D01*
X155605341Y52481341D01*
X155498996Y52610922D01*
X155490886Y52626094D01*
X155419976Y52758758D01*
X155371313Y52919177D01*
X155354883Y53086000D01*
X155371313Y53252823D01*
X155419976Y53413242D01*
X155498995Y53561076D01*
X155498996Y53561078D01*
X155605341Y53690659D01*
X155734922Y53797004D01*
X155750094Y53805114D01*
X155882758Y53876024D01*
X156043177Y53924687D01*
X156168196Y53937000D01*
X156251804Y53937000D01*
X156376823Y53924687D01*
X156376823Y53924687D01*
G37*
G36*
X149441000Y52235000D02*
G01*
X147739000Y52235000D01*
X147739000Y53937000D01*
X149441000Y53937000D01*
X149441000Y52235000D01*
X149441000Y52235000D01*
G37*
G36*
X143366442Y54742482D02*
G01*
X143432627Y54735963D01*
X143602466Y54684443D01*
X143758991Y54600778D01*
X143794729Y54571448D01*
X143896186Y54488186D01*
X143979448Y54386729D01*
X144008778Y54350991D01*
X144092443Y54194466D01*
X144143963Y54024627D01*
X144161359Y53848000D01*
X144143963Y53671373D01*
X144092443Y53501534D01*
X144008778Y53345009D01*
X143979448Y53309271D01*
X143896186Y53207814D01*
X143794729Y53124552D01*
X143758991Y53095222D01*
X143602466Y53011557D01*
X143432627Y52960037D01*
X143366443Y52953519D01*
X143300260Y52947000D01*
X143211740Y52947000D01*
X143145557Y52953519D01*
X143079373Y52960037D01*
X142909534Y53011557D01*
X142753009Y53095222D01*
X142717271Y53124552D01*
X142615814Y53207814D01*
X142532552Y53309271D01*
X142503222Y53345009D01*
X142419557Y53501534D01*
X142368037Y53671373D01*
X142350641Y53848000D01*
X142368037Y54024627D01*
X142419557Y54194466D01*
X142503222Y54350991D01*
X142532552Y54386729D01*
X142615814Y54488186D01*
X142717271Y54571448D01*
X142753009Y54600778D01*
X142909534Y54684443D01*
X143079373Y54735963D01*
X143145558Y54742482D01*
X143211740Y54749000D01*
X143300260Y54749000D01*
X143366442Y54742482D01*
X143366442Y54742482D01*
G37*
G36*
X141617000Y52947000D02*
G01*
X139815000Y52947000D01*
X139815000Y54749000D01*
X141617000Y54749000D01*
X141617000Y52947000D01*
X141617000Y52947000D01*
G37*
M02*
